<mxfile host="Electron" modified="2024-02-27T18:22:42.243Z" agent="Mozilla/5.0 (Windows NT 10.0; Win64; x64) AppleWebKit/537.36 (KHTML, like Gecko) draw.io/23.1.5 Chrome/120.0.6099.109 Electron/28.1.0 Safari/537.36" etag="w--8bgvPOfjrw3e3c3OW" version="23.1.5" type="device">
  <diagram name="ページ1" id="4kXGkrT-Vvidgy9d8uIk">
    <mxGraphModel dx="1086" dy="628" grid="1" gridSize="10" guides="1" tooltips="1" connect="1" arrows="1" fold="1" page="1" pageScale="1" pageWidth="827" pageHeight="1169" math="0" shadow="0">
      <root>
        <mxCell id="0" />
        <mxCell id="1" parent="0" />
        <mxCell id="luYWpKc1zl30fqJoofZf-3" value="windows" parent="0" />
        <mxCell id="luYWpKc1zl30fqJoofZf-6" value="Windows" style="rounded=0;whiteSpace=wrap;html=1;align=left;verticalAlign=top;fillColor=none;fontSize=12;strokeColor=#6c8ebf;" parent="luYWpKc1zl30fqJoofZf-3" vertex="1">
          <mxGeometry x="80" y="40" width="520" height="600" as="geometry" />
        </mxCell>
        <mxCell id="luYWpKc1zl30fqJoofZf-4" value="docker" parent="0" />
        <mxCell id="luYWpKc1zl30fqJoofZf-8" value="vnc_nw(10.10.0.0/16) *bridge-nw" style="rounded=0;whiteSpace=wrap;html=1;align=left;verticalAlign=top;fillColor=#d5e8d4;fontSize=12;strokeColor=#82b366;" parent="luYWpKc1zl30fqJoofZf-4" vertex="1">
          <mxGeometry x="200" y="160" width="360" height="440" as="geometry" />
        </mxCell>
        <mxCell id="KU50Wm7XM6CYU7vMVtRq-27" value="vncserver(10.10.0.3/16)" style="rounded=0;whiteSpace=wrap;html=1;align=left;verticalAlign=top;fillColor=none;fontSize=12;strokeColor=#b85450;" vertex="1" parent="luYWpKc1zl30fqJoofZf-4">
          <mxGeometry x="279.94000000000005" y="400" width="240.03" height="160" as="geometry" />
        </mxCell>
        <mxCell id="KU50Wm7XM6CYU7vMVtRq-84" value="nonvcserver(10.10.0.2/16)" style="rounded=0;whiteSpace=wrap;html=1;align=left;verticalAlign=top;fillColor=none;fontSize=12;strokeColor=#b85450;" vertex="1" parent="luYWpKc1zl30fqJoofZf-4">
          <mxGeometry x="279.94000000000005" y="180" width="240.03" height="180" as="geometry" />
        </mxCell>
        <mxCell id="ukuxaiV331VI8wh_9Zrm-1" value="instance" parent="0" />
        <mxCell id="KU50Wm7XM6CYU7vMVtRq-54" value="Port" style="shape=table;startSize=30;container=1;collapsible=0;childLayout=tableLayout;fixedRows=1;rowLines=0;fontStyle=0;strokeColor=default;fontSize=12;" vertex="1" parent="ukuxaiV331VI8wh_9Zrm-1">
          <mxGeometry x="259.94000000000005" y="220" width="40" height="120" as="geometry" />
        </mxCell>
        <mxCell id="KU50Wm7XM6CYU7vMVtRq-55" value="" style="shape=tableRow;horizontal=0;startSize=0;swimlaneHead=0;swimlaneBody=0;top=0;left=0;bottom=0;right=0;collapsible=0;dropTarget=0;fillColor=none;points=[[0,0.5],[1,0.5]];portConstraint=eastwest;strokeColor=inherit;fontSize=12;" vertex="1" parent="KU50Wm7XM6CYU7vMVtRq-54">
          <mxGeometry y="30" width="40" height="30" as="geometry" />
        </mxCell>
        <mxCell id="KU50Wm7XM6CYU7vMVtRq-56" value="6080" style="shape=partialRectangle;html=1;whiteSpace=wrap;connectable=0;fillColor=none;top=0;left=0;bottom=0;right=0;overflow=hidden;pointerEvents=1;strokeColor=inherit;fontSize=12;" vertex="1" parent="KU50Wm7XM6CYU7vMVtRq-55">
          <mxGeometry width="40" height="30" as="geometry">
            <mxRectangle width="40" height="30" as="alternateBounds" />
          </mxGeometry>
        </mxCell>
        <mxCell id="KU50Wm7XM6CYU7vMVtRq-57" value="" style="shape=tableRow;horizontal=0;startSize=0;swimlaneHead=0;swimlaneBody=0;top=0;left=0;bottom=0;right=0;collapsible=0;dropTarget=0;fillColor=none;points=[[0,0.5],[1,0.5]];portConstraint=eastwest;strokeColor=inherit;fontSize=12;" vertex="1" parent="KU50Wm7XM6CYU7vMVtRq-54">
          <mxGeometry y="60" width="40" height="30" as="geometry" />
        </mxCell>
        <mxCell id="KU50Wm7XM6CYU7vMVtRq-58" value="…" style="shape=partialRectangle;html=1;whiteSpace=wrap;connectable=0;fillColor=none;top=0;left=0;bottom=0;right=0;overflow=hidden;strokeColor=inherit;fontSize=12;" vertex="1" parent="KU50Wm7XM6CYU7vMVtRq-57">
          <mxGeometry width="40" height="30" as="geometry">
            <mxRectangle width="40" height="30" as="alternateBounds" />
          </mxGeometry>
        </mxCell>
        <mxCell id="KU50Wm7XM6CYU7vMVtRq-59" value="" style="shape=tableRow;horizontal=0;startSize=0;swimlaneHead=0;swimlaneBody=0;top=0;left=0;bottom=0;right=0;collapsible=0;dropTarget=0;fillColor=none;points=[[0,0.5],[1,0.5]];portConstraint=eastwest;strokeColor=inherit;fontSize=12;" vertex="1" parent="KU50Wm7XM6CYU7vMVtRq-54">
          <mxGeometry y="90" width="40" height="30" as="geometry" />
        </mxCell>
        <mxCell id="KU50Wm7XM6CYU7vMVtRq-60" value="y" style="shape=partialRectangle;html=1;whiteSpace=wrap;connectable=0;fillColor=none;top=0;left=0;bottom=0;right=0;overflow=hidden;strokeColor=inherit;fontSize=12;" vertex="1" parent="KU50Wm7XM6CYU7vMVtRq-59">
          <mxGeometry width="40" height="30" as="geometry">
            <mxRectangle width="40" height="30" as="alternateBounds" />
          </mxGeometry>
        </mxCell>
        <mxCell id="KU50Wm7XM6CYU7vMVtRq-61" style="edgeStyle=orthogonalEdgeStyle;rounded=0;orthogonalLoop=1;jettySize=auto;html=1;exitX=1;exitY=0.5;exitDx=0;exitDy=0;entryX=0;entryY=0.5;entryDx=0;entryDy=0;" edge="1" parent="ukuxaiV331VI8wh_9Zrm-1" source="KU50Wm7XM6CYU7vMVtRq-62" target="KU50Wm7XM6CYU7vMVtRq-73">
          <mxGeometry relative="1" as="geometry" />
        </mxCell>
        <mxCell id="KU50Wm7XM6CYU7vMVtRq-62" value="Port" style="shape=table;startSize=30;container=1;collapsible=0;childLayout=tableLayout;fixedRows=1;rowLines=0;fontStyle=0;strokeColor=default;fontSize=12;" vertex="1" parent="ukuxaiV331VI8wh_9Zrm-1">
          <mxGeometry x="259.94000000000005" y="440" width="40" height="90" as="geometry" />
        </mxCell>
        <mxCell id="KU50Wm7XM6CYU7vMVtRq-63" value="" style="shape=tableRow;horizontal=0;startSize=0;swimlaneHead=0;swimlaneBody=0;top=0;left=0;bottom=0;right=0;collapsible=0;dropTarget=0;fillColor=none;points=[[0,0.5],[1,0.5]];portConstraint=eastwest;strokeColor=inherit;fontSize=12;" vertex="1" parent="KU50Wm7XM6CYU7vMVtRq-62">
          <mxGeometry y="30" width="40" height="30" as="geometry" />
        </mxCell>
        <mxCell id="KU50Wm7XM6CYU7vMVtRq-64" value="5091" style="shape=partialRectangle;html=1;whiteSpace=wrap;connectable=0;fillColor=none;top=0;left=0;bottom=0;right=0;overflow=hidden;pointerEvents=1;strokeColor=inherit;fontSize=12;" vertex="1" parent="KU50Wm7XM6CYU7vMVtRq-63">
          <mxGeometry width="40" height="30" as="geometry">
            <mxRectangle width="40" height="30" as="alternateBounds" />
          </mxGeometry>
        </mxCell>
        <mxCell id="KU50Wm7XM6CYU7vMVtRq-65" value="" style="shape=tableRow;horizontal=0;startSize=0;swimlaneHead=0;swimlaneBody=0;top=0;left=0;bottom=0;right=0;collapsible=0;dropTarget=0;fillColor=none;points=[[0,0.5],[1,0.5]];portConstraint=eastwest;strokeColor=inherit;fontSize=12;" vertex="1" parent="KU50Wm7XM6CYU7vMVtRq-62">
          <mxGeometry y="60" width="40" height="30" as="geometry" />
        </mxCell>
        <mxCell id="KU50Wm7XM6CYU7vMVtRq-66" value="…" style="shape=partialRectangle;html=1;whiteSpace=wrap;connectable=0;fillColor=none;top=0;left=0;bottom=0;right=0;overflow=hidden;strokeColor=inherit;fontSize=12;" vertex="1" parent="KU50Wm7XM6CYU7vMVtRq-65">
          <mxGeometry width="40" height="30" as="geometry">
            <mxRectangle width="40" height="30" as="alternateBounds" />
          </mxGeometry>
        </mxCell>
        <mxCell id="KU50Wm7XM6CYU7vMVtRq-67" value="Port Forward" style="edgeStyle=orthogonalEdgeStyle;rounded=0;orthogonalLoop=1;jettySize=auto;html=1;exitX=1;exitY=0.5;exitDx=0;exitDy=0;entryX=0;entryY=0.5;entryDx=0;entryDy=0;shape=link;labelBackgroundColor=none;" edge="1" parent="ukuxaiV331VI8wh_9Zrm-1" source="KU50Wm7XM6CYU7vMVtRq-79" target="KU50Wm7XM6CYU7vMVtRq-55">
          <mxGeometry y="9" relative="1" as="geometry">
            <mxPoint as="offset" />
          </mxGeometry>
        </mxCell>
        <mxCell id="KU50Wm7XM6CYU7vMVtRq-68" value="VNC&lt;br style=&quot;border-color: var(--border-color); font-size: 12px;&quot;&gt;&lt;span style=&quot;font-size: 12px;&quot;&gt;(TCP)&lt;/span&gt;" style="edgeStyle=orthogonalEdgeStyle;rounded=0;orthogonalLoop=1;jettySize=auto;html=1;exitX=0;exitY=0.75;exitDx=0;exitDy=0;entryX=1;entryY=0.5;entryDx=0;entryDy=0;" edge="1" parent="ukuxaiV331VI8wh_9Zrm-1" source="KU50Wm7XM6CYU7vMVtRq-72" target="KU50Wm7XM6CYU7vMVtRq-59">
          <mxGeometry relative="1" as="geometry" />
        </mxCell>
        <mxCell id="KU50Wm7XM6CYU7vMVtRq-69" style="edgeStyle=orthogonalEdgeStyle;rounded=0;orthogonalLoop=1;jettySize=auto;html=1;exitX=0;exitY=0.5;exitDx=0;exitDy=0;entryX=0;entryY=0.5;entryDx=0;entryDy=0;" edge="1" parent="ukuxaiV331VI8wh_9Zrm-1" source="KU50Wm7XM6CYU7vMVtRq-59" target="KU50Wm7XM6CYU7vMVtRq-63">
          <mxGeometry relative="1" as="geometry" />
        </mxCell>
        <mxCell id="KU50Wm7XM6CYU7vMVtRq-70" style="edgeStyle=orthogonalEdgeStyle;rounded=0;orthogonalLoop=1;jettySize=auto;html=1;exitX=1;exitY=0.5;exitDx=0;exitDy=0;entryX=0;entryY=0.25;entryDx=0;entryDy=0;fontSize=12;" edge="1" parent="ukuxaiV331VI8wh_9Zrm-1" source="KU50Wm7XM6CYU7vMVtRq-55" target="KU50Wm7XM6CYU7vMVtRq-72">
          <mxGeometry relative="1" as="geometry">
            <mxPoint x="479.94000000000005" y="240" as="sourcePoint" />
          </mxGeometry>
        </mxCell>
        <mxCell id="KU50Wm7XM6CYU7vMVtRq-71" value="Browser" style="rounded=0;whiteSpace=wrap;html=1;fontSize=12;" vertex="1" parent="ukuxaiV331VI8wh_9Zrm-1">
          <mxGeometry x="120" y="80" width="80" height="40" as="geometry" />
        </mxCell>
        <mxCell id="KU50Wm7XM6CYU7vMVtRq-72" value="Websockify" style="rounded=0;whiteSpace=wrap;html=1;fontSize=12;" vertex="1" parent="ukuxaiV331VI8wh_9Zrm-1">
          <mxGeometry x="359.97" y="240" width="80" height="80" as="geometry" />
        </mxCell>
        <mxCell id="KU50Wm7XM6CYU7vMVtRq-73" value="VNC Server" style="rounded=0;whiteSpace=wrap;html=1;fontSize=12;" vertex="1" parent="ukuxaiV331VI8wh_9Zrm-1">
          <mxGeometry x="359.97" y="445" width="80" height="80" as="geometry" />
        </mxCell>
        <mxCell id="KU50Wm7XM6CYU7vMVtRq-74" value="Port" style="shape=table;startSize=30;container=1;collapsible=0;childLayout=tableLayout;fixedRows=1;rowLines=0;fontStyle=0;strokeColor=default;fontSize=12;" vertex="1" parent="ukuxaiV331VI8wh_9Zrm-1">
          <mxGeometry x="60" y="160" width="40" height="120" as="geometry" />
        </mxCell>
        <mxCell id="KU50Wm7XM6CYU7vMVtRq-75" value="" style="shape=tableRow;horizontal=0;startSize=0;swimlaneHead=0;swimlaneBody=0;top=0;left=0;bottom=0;right=0;collapsible=0;dropTarget=0;fillColor=none;points=[[0,0.5],[1,0.5]];portConstraint=eastwest;strokeColor=inherit;fontSize=12;" vertex="1" parent="KU50Wm7XM6CYU7vMVtRq-74">
          <mxGeometry y="30" width="40" height="30" as="geometry" />
        </mxCell>
        <mxCell id="KU50Wm7XM6CYU7vMVtRq-76" value="x" style="shape=partialRectangle;html=1;whiteSpace=wrap;connectable=0;fillColor=none;top=0;left=0;bottom=0;right=0;overflow=hidden;pointerEvents=1;strokeColor=inherit;fontSize=12;" vertex="1" parent="KU50Wm7XM6CYU7vMVtRq-75">
          <mxGeometry width="40" height="30" as="geometry">
            <mxRectangle width="40" height="30" as="alternateBounds" />
          </mxGeometry>
        </mxCell>
        <mxCell id="KU50Wm7XM6CYU7vMVtRq-77" value="" style="shape=tableRow;horizontal=0;startSize=0;swimlaneHead=0;swimlaneBody=0;top=0;left=0;bottom=0;right=0;collapsible=0;dropTarget=0;fillColor=none;points=[[0,0.5],[1,0.5]];portConstraint=eastwest;strokeColor=inherit;fontSize=12;" vertex="1" parent="KU50Wm7XM6CYU7vMVtRq-74">
          <mxGeometry y="60" width="40" height="30" as="geometry" />
        </mxCell>
        <mxCell id="KU50Wm7XM6CYU7vMVtRq-78" value="…" style="shape=partialRectangle;html=1;whiteSpace=wrap;connectable=0;fillColor=none;top=0;left=0;bottom=0;right=0;overflow=hidden;strokeColor=inherit;fontSize=12;" vertex="1" parent="KU50Wm7XM6CYU7vMVtRq-77">
          <mxGeometry width="40" height="30" as="geometry">
            <mxRectangle width="40" height="30" as="alternateBounds" />
          </mxGeometry>
        </mxCell>
        <mxCell id="KU50Wm7XM6CYU7vMVtRq-79" value="" style="shape=tableRow;horizontal=0;startSize=0;swimlaneHead=0;swimlaneBody=0;top=0;left=0;bottom=0;right=0;collapsible=0;dropTarget=0;fillColor=none;points=[[0,0.5],[1,0.5]];portConstraint=eastwest;strokeColor=inherit;fontSize=12;" vertex="1" parent="KU50Wm7XM6CYU7vMVtRq-74">
          <mxGeometry y="90" width="40" height="30" as="geometry" />
        </mxCell>
        <mxCell id="KU50Wm7XM6CYU7vMVtRq-80" value="6080" style="shape=partialRectangle;html=1;whiteSpace=wrap;connectable=0;fillColor=none;top=0;left=0;bottom=0;right=0;overflow=hidden;strokeColor=inherit;fontSize=12;" vertex="1" parent="KU50Wm7XM6CYU7vMVtRq-79">
          <mxGeometry width="40" height="30" as="geometry">
            <mxRectangle width="40" height="30" as="alternateBounds" />
          </mxGeometry>
        </mxCell>
        <mxCell id="KU50Wm7XM6CYU7vMVtRq-81" style="edgeStyle=orthogonalEdgeStyle;rounded=0;orthogonalLoop=1;jettySize=auto;html=1;exitX=0;exitY=0.5;exitDx=0;exitDy=0;entryX=0;entryY=0.5;entryDx=0;entryDy=0;" edge="1" parent="KU50Wm7XM6CYU7vMVtRq-74" source="KU50Wm7XM6CYU7vMVtRq-75" target="KU50Wm7XM6CYU7vMVtRq-79">
          <mxGeometry relative="1" as="geometry" />
        </mxCell>
        <mxCell id="KU50Wm7XM6CYU7vMVtRq-82" value="websocket" style="edgeStyle=orthogonalEdgeStyle;rounded=0;orthogonalLoop=1;jettySize=auto;html=1;exitX=0.5;exitY=1;exitDx=0;exitDy=0;entryX=1;entryY=0.5;entryDx=0;entryDy=0;fontSize=12;" edge="1" parent="ukuxaiV331VI8wh_9Zrm-1" source="KU50Wm7XM6CYU7vMVtRq-71" target="KU50Wm7XM6CYU7vMVtRq-75">
          <mxGeometry x="-0.7037" relative="1" as="geometry">
            <mxPoint as="offset" />
          </mxGeometry>
        </mxCell>
        <mxCell id="KU50Wm7XM6CYU7vMVtRq-83" value="nonvc" style="rounded=0;whiteSpace=wrap;html=1;fontSize=12;" vertex="1" parent="ukuxaiV331VI8wh_9Zrm-1">
          <mxGeometry x="439.97" y="240" width="40" height="40" as="geometry" />
        </mxCell>
      </root>
    </mxGraphModel>
  </diagram>
</mxfile>
